<svg xmlns="http://www.w3.org/2000/svg"  viewBox="0 0 64 64" width="64px" height="64px"><path d="M 18 4 C 16.343 4 15 5.343 15 7 L 15 57 C 15 58.657 16.343 60 18 60 L 46 60 C 47.657 60 49 58.657 49 57 L 49 19 C 49.552 19 50 18.552 50 18 L 50 12 C 50 11.448 49.552 11 49 11 L 49 7 C 49 5.343 47.657 4 46 4 L 18 4 z M 28.140625 11.003906 C 28.269281 11.020406 28.397125 11.061609 28.515625 11.130859 C 28.993625 11.408859 29.154 12.021047 28.875 12.498047 L 26.789062 16.074219 C 30.218062 18.167219 32.609 21.791 33 26 L 20 26 L 20 14.164062 C 21.774 14.164062 23.461906 14.525016 25.003906 15.166016 L 27.148438 11.490234 C 27.356938 11.132484 27.754656 10.954406 28.140625 11.003906 z M 25.5 20 A 1.5 1.5 0 0 0 25.5 23 A 1.5 1.5 0 0 0 25.5 20 z M 20 28 L 33 28 L 33 42 C 33 43.105 32.105 44 31 44 L 27 44 L 27 52 C 27 53.105 26.105 54 25 54 C 23.895 54 23 53.105 23 52 L 23 44 L 20 44 L 20 28 z M 37 28 C 38.105 28 39 28.895 39 30 L 39 38 C 39 39.105 38.105 40 37 40 C 35.895 40 35 39.105 35 38 L 35 30 C 35 28.895 35.895 28 37 28 z"/></svg>