<svg xmlns="http://www.w3.org/2000/svg"  viewBox="0 0 64 64" width="64px" height="64px"><path d="M 17.058594 9.6113281 A 3 3 0 0 0 14.140625 11.65625 L 2.0527344 47.681641 A 1 1 0 0 0 2.6816406 48.947266 L 15.953125 53.400391 A 1 1 0 0 0 16.271484 53.451172 A 1 1 0 0 0 17.220703 52.769531 L 29 17.677734 L 29 52 A 1 1 0 0 0 30 53 L 44 53 A 1 1 0 0 0 45 52 L 45 14 A 3 3 0 0 0 42 11 L 32 11 A 3 3 0 0 0 29 14 L 29 14.212891 A 2.977 2.977 0 0 0 27.421875 12.949219 L 17.941406 9.7675781 A 3 3 0 0 0 17.058594 9.6113281 z M 49 11 A 3 3 0 0 0 46 14 L 46 52 A 1 1 0 0 0 47 53 L 61 53 A 1 1 0 0 0 62 52 L 62 14 A 3 3 0 0 0 59 11 L 49 11 z M 16.939453 11.611328 A 1 1 0 0 1 17.304688 11.662109 L 26.785156 14.845703 A 1 1 0 0 1 27.416016 16.111328 L 15.642578 51.1875 L 4.265625 47.369141 L 16.039062 12.292969 A 1 1 0 0 1 16.939453 11.611328 z M 17.642578 12.878906 A 1 1 0 0 0 16.669922 13.560547 L 15.400391 17.351562 A 1 1 0 0 0 16.029297 18.617188 L 23.615234 21.162109 A 1 1 0 0 0 24.880859 20.533203 L 26.152344 16.740234 A 1 1 0 0 0 25.519531 15.474609 L 17.935547 12.929688 A 1 1 0 0 0 17.642578 12.878906 z M 32 13 L 42 13 A 1 1 0 0 1 43 14 L 43 51 L 31 51 L 31 14 A 1 1 0 0 1 32 13 z M 49 13 L 59 13 A 1 1 0 0 1 60 14 L 60 51 L 48 51 L 48 14 A 1 1 0 0 1 49 13 z M 33 14 A 1 1 0 0 0 32 15 L 32 19 A 1 1 0 0 0 33 20 L 41 20 A 1 1 0 0 0 42 19 L 42 15 A 1 1 0 0 0 41 14 L 33 14 z M 50 14 A 1 1 0 0 0 49 15 L 49 19 A 1 1 0 0 0 50 20 L 58 20 A 1 1 0 0 0 59 19 L 59 15 A 1 1 0 0 0 58 14 L 50 14 z M 18.246094 15.144531 L 23.935547 17.052734 L 23.300781 18.947266 L 17.609375 17.039062 L 18.246094 15.144531 z M 34 16 L 40 16 L 40 18 L 34 18 L 34 16 z M 51 16 L 57 16 L 57 18 L 51 18 L 51 16 z M 13.804688 22.089844 L 13.167969 23.988281 L 16.960938 25.259766 L 17.597656 23.363281 L 13.804688 22.089844 z M 18.546875 23.681641 L 17.910156 25.580078 L 22.650391 27.169922 L 23.287109 25.273438 L 18.546875 23.681641 z M 37 24 L 37 26 L 42 26 L 42 24 L 37 24 z M 54 24 L 54 26 L 59 26 L 59 24 L 54 24 z M 12.851562 24.935547 L 12.214844 26.833984 L 21.695312 30.015625 L 22.332031 28.117188 L 12.851562 24.935547 z M 32 27 L 32 29 L 42 29 L 42 27 L 32 27 z M 49 27 L 49 29 L 59 29 L 59 27 L 49 27 z M 8.0957031 41.318359 A 1 1 0 0 0 7.1230469 42 L 5.8515625 45.792969 A 1 1 0 0 0 6.4804688 47.058594 L 14.064453 49.599609 A 0.987 0.987 0 0 0 14.382812 49.652344 A 1 1 0 0 0 15.330078 48.970703 L 16.599609 45.183594 A 1 1 0 0 0 15.970703 43.916016 L 15.974609 43.916016 L 8.390625 41.369141 A 1 1 0 0 0 8.0957031 41.318359 z M 8.6992188 43.585938 L 14.388672 45.494141 L 13.753906 47.390625 L 8.0644531 45.480469 L 8.6992188 43.585938 z M 33 44 A 1 1 0 0 0 32 45 L 32 49 A 1 1 0 0 0 33 50 L 41 50 A 1 1 0 0 0 42 49 L 42 45 A 1 1 0 0 0 41 44 L 33 44 z M 50 44 A 1 1 0 0 0 49 45 L 49 49 A 1 1 0 0 0 50 50 L 58 50 A 1 1 0 0 0 59 49 L 59 45 A 1 1 0 0 0 58 44 L 50 44 z M 34 46 L 40 46 L 40 48 L 34 48 L 34 46 z M 51 46 L 57 46 L 57 48 L 51 48 L 51 46 z"/></svg>