<svg xmlns="http://www.w3.org/2000/svg"  viewBox="0 0 98 98" width="64px" height="64px"><path d="M82.3,24H66V20.9A7.7,7.7,0,0,0,58.3,13H39.7A7.7,7.7,0,0,0,32,20.9V24H15.7A7.4,7.4,0,0,0,8,31.6V77.1A7.7,7.7,0,0,0,15.7,85H82.3A7.7,7.7,0,0,0,90,77.1V31.6A7.4,7.4,0,0,0,82.3,24ZM36,20.9A3.7,3.7,0,0,1,39.7,17H58.3A3.7,3.7,0,0,1,62,20.9V24H36ZM82.3,81H15.7A3.7,3.7,0,0,1,12,77.1V64a6.2,6.2,0,0,0,3.7,1H36v5.8A2.6,2.6,0,0,0,38.4,73H59.6A2.6,2.6,0,0,0,62,70.8V65H82.3A6.2,6.2,0,0,0,86,64V77.1A3.7,3.7,0,0,1,82.3,81ZM40,69V59H58V69ZM86,57.1A3.7,3.7,0,0,1,82.3,61H62V56.7c0-1.1-1.3-1.7-2.4-1.7H38.4c-1.1,0-2.4.6-2.4,1.7V61H15.7A3.7,3.7,0,0,1,12,57.1V31.6A3.4,3.4,0,0,1,15.7,28H82.3A3.4,3.4,0,0,1,86,31.6V57.1Z"/></svg>