<svg xmlns="http://www.w3.org/2000/svg" viewBox="0 0 146 146"><title>Asset 1</title><g id="Layer_2" data-name="Layer 2"><g id="Layer_1-2" data-name="Layer 1"><path d="M125.75,0H20.25A20.25,20.25,0,0,0,0,20.25v105.5A20.25,20.25,0,0,0,20.25,146h105.5A20.25,20.25,0,0,0,146,125.75V20.25A20.25,20.25,0,0,0,125.75,0Zm6.02356,66.53632-26.62787,2.07959-.553-2.89722,25.52191-7.874Zm-5.83209-19.67951,3.3446,8.19208-25.6911,7.303-1.11487-2.73071Zm-1.13074-2.15588-23.839,12.04443-1.61267-2.46954,20.61365-16.98371ZM109.81189,26.9436,92.45367,47.2428,90.014,45.58514,102.493,21.97076ZM44.451,21.43933l12.04449,23.839L54.02588,46.891,37.04224,26.2774Zm-9.93237,6.88214L51.15594,49.21564l-2.09039,2.08087L28.2475,34.564Zm-7.82489,8.1167L46.99286,53.79639,45.33527,56.236,21.72083,43.75708Zm-6.364,9.88172L43.6601,59.3222l-1.14258,2.71924L16.902,54.47754ZM16.17719,56.80157l25.37341,8.34-.6059,2.8866L14.35938,65.46136ZM14.02032,68.69122l26.53876,3.01007-.00671,2.94947-26.55219,2.889Zm.2063,11.2724,26.62781-2.07953.553,2.89722-25.52185,7.874Zm5.832,19.67951-3.34454-8.19208,25.691-7.303L43.52,86.87872Zm1.1308,2.15594L45.02838,89.75458l1.61267,2.4696L26.02747,109.20782Zm6.88214,9.93238L48.96576,95.09412l2.08081,2.09039L34.31415,118.00256ZM46.07,125.92029l8.37243-15.02289-7.988,10.65076,3.02691-8.324L43.5072,124.52924l-7.319-4.9729L53.54651,99.2572l.81287.55231,9.79205-26.92822H47.92914L62.01886,42.689,59.37134,43.77,46.60693,20.30859,54.799,16.964l7.27753,25.6015,2.21081-4.73743L57.59479,16.13544l8.69165-1.65894,1.27563,16.33423,1.01361-2.172,1.68543-.13562-1.55078-14.253,8.84851.0202-1.562,13.7713,3.52228-.28338L80.7887,14.60931l8.65979,1.81775-3.55585,10.8183,2.97-.239L91.77252,17.152l8.15766,3.42767L96.7,26.37573h0l-13.37671,25.859,13.33-1.21179-1.69971-1.70746,16.73249-20.818,6.24255,6.27111L97.62634,50.93445,99.54553,50.76l-39.256,52.34137,1.502.63116L54.22766,129.348Zm19.14148,5.9704-8.65979-1.81781,8.3399-25.37342,2.8866.6059Zm3.22986.339,3.01-26.53876,2.94953.00671,2.889,26.55219Zm11.2724-.2063-2.07953-26.62781,2.89715-.553,7.874,25.52185ZM91.20117,129.536l-7.303-25.691L86.62885,102.73l12.7644,23.46137Zm10.348-4.47534L89.5047,101.22168,91.97424,99.609,108.958,120.2226Zm9.93238-6.88214L94.84424,97.2843l2.09033-2.08081,20.81805,16.73242Zm7.825-8.11664L99.00726,92.70355l1.65766-2.43963,23.61444,12.47894Zm6.364-9.88178L102.34,87.17773l1.14257-2.71917,25.61548,7.56384ZM129.823,89.69836l-25.37348-8.3399.606-2.8866,26.58527,2.56671Zm2.1568-11.88964-26.53876-3.01.00677-2.94953L132,68.96027Z"/></g></g></svg>