<svg xmlns="http://www.w3.org/2000/svg"  viewBox="0 0 64 64" width="64px" height="64px"><path d="M 20 7 A 1.0001 1.0001 0 0 0 19 8 L 19 14 A 1.0001 1.0001 0 0 0 20 15 L 23.679688 15 C 17.380819 18.096306 13 24.516503 13 32 C 13 34.733892 13.579025 37.337145 14.621094 39.689453 A 1.0001 1.0001 0 1 0 16.449219 38.880859 C 15.517287 36.777168 15 34.452108 15 32 C 15 22.601443 22.596345 15.003212 31.994141 15 L 32 15 C 37.729573 15 42.78394 17.827327 45.865234 22.162109 A 1.0001 1.0001 0 0 0 47.111328 22.486328 C 47.715953 22.197784 48.324847 21.95575 48.927734 21.708984 C 49.178609 22.227005 49.414786 22.711755 49.820312 23.564453 C 50.233818 24.433926 50.466442 24.94094 50.699219 25.445312 C 50.163797 25.747317 49.694245 26.022682 48.925781 26.416016 A 1.0001 1.0001 0 0 0 48.416016 27.566406 C 48.796473 28.979821 49 30.465314 49 32 C 49 33.591497 48.780884 35.127353 48.373047 36.585938 A 1.0001 1.0001 0 0 0 48.900391 37.755859 C 49.766987 38.175553 50.337944 38.415263 50.96875 38.689453 C 50.527111 39.677181 49.76144 41.384115 49.292969 42.425781 C 48.574378 42.102114 47.869373 41.781958 47.105469 41.455078 A 1.0001 1.0001 0 0 0 45.894531 41.796875 C 42.815046 46.155386 37.747628 49 32 49 C 26.956549 49 22.493622 46.755111 19.380859 43.273438 C 20.531359 42.255229 27.123573 36.463186 32.291016 32.542969 C 33.772507 33.810348 35.546652 35.246565 37.115234 36.470703 C 38.00682 37.166506 38.806612 37.783652 39.390625 38.236328 C 39.682632 38.462666 39.920962 38.648582 40.085938 38.779297 C 40.168427 38.844657 40.232824 38.895637 40.271484 38.927734 C 40.310144 38.959834 40.398524 39.083105 40.224609 38.869141 A 1.0001 1.0001 0 1 0 41.775391 37.607422 C 41.582471 37.37008 41.60911 37.440674 41.548828 37.390625 C 41.488548 37.340575 41.416876 37.281258 41.328125 37.210938 C 41.150624 37.070296 40.909009 36.883959 40.615234 36.65625 C 40.027685 36.200833 39.231867 35.586103 38.345703 34.894531 C 36.573374 33.511387 34.439013 31.815786 32.951172 30.505859 A 1.0001 1.0001 0 0 0 31.693359 30.455078 C 25.914016 34.762229 17.255859 42.46875 17.255859 42.46875 A 1.0001 1.0001 0 0 0 17.138672 43.839844 C 18.857176 45.994489 21.043592 47.757452 23.533203 49 L 20 49 A 1.0001 1.0001 0 0 0 19 50 L 19 56 A 1.0001 1.0001 0 0 0 20 57 L 44 57 A 1.0001 1.0001 0 0 0 45 56 L 45 50 A 1.0001 1.0001 0 0 0 44 49 L 40.359375 49 C 42.964283 47.716388 45.201549 45.853682 46.964844 43.580078 C 47.774464 43.93299 48.555584 44.27711 49.384766 44.654297 A 1.0001 1.0001 0 0 0 50.699219 44.177734 C 50.97155 43.611872 52.938721 39.250048 53.214844 38.566406 A 1.0001 1.0001 0 0 0 52.642578 37.255859 C 51.897256 36.971821 51.222321 36.635395 50.419922 36.248047 C 50.73703 34.871615 51 33.470886 51 32 C 51 30.569425 50.755664 29.202058 50.455078 27.859375 C 51.125349 27.486944 51.605622 27.18608 52.447266 26.765625 A 1.0001 1.0001 0 0 0 52.927734 25.5 C 52.754156 25.067772 52.218596 23.94912 51.626953 22.705078 C 51.03531 21.461036 50.465608 20.272385 50.306641 19.960938 A 1.0001 1.0001 0 0 0 48.951172 19.529297 C 48.275854 19.882395 47.634479 20.103663 46.939453 20.386719 C 45.211362 18.168273 43.040703 16.32752 40.505859 15.052734 L 44.046875 15.074219 A 1.0001 1.0001 0 0 0 45.052734 14.064453 L 45 7.9921875 A 1.0001 1.0001 0 0 0 44 7 L 20 7 z M 21 9 L 43.007812 9 L 43.042969 13.068359 L 32.005859 13 L 32 13 L 21 13 L 21 9 z M 21 51 L 32 51 L 43 51 L 43 55 L 21 55 L 21 51 z"/></svg>