<svg xmlns="http://www.w3.org/2000/svg"  viewBox="0 0 64 64" width="64px" height="64px"><path d="M 17 9 C 15.35503 9 14 10.35503 14 12 L 14 15 L 13.21875 15 C 10.901138 15 9 16.901138 9 19.21875 L 9 50.78125 C 9 53.098862 10.901138 55 13.21875 55 L 52.78125 55 C 55.098862 55 57 53.098862 57 50.78125 L 57 33.167969 A 1.0001 1.0001 0 0 0 56.710938 32.283203 A 1.0001 1.0001 0 0 0 56.707031 32.279297 A 1.0001 1.0001 0 0 0 56.699219 32.271484 A 1.0001 1.0001 0 0 0 56.691406 32.263672 A 1.0001 1.0001 0 0 0 55.841797 32 L 43 32 L 43 26 L 55.832031 26 A 1.0001 1.0001 0 0 0 56.716797 25.710938 A 1.0001 1.0001 0 0 0 56.720703 25.707031 A 1.0001 1.0001 0 0 0 56.728516 25.699219 A 1.0001 1.0001 0 0 0 56.736328 25.691406 A 1.0001 1.0001 0 0 0 57 24.841797 L 57 19.21875 C 57 16.901138 55.098862 15 52.78125 15 L 52.03125 15 L 52.011719 11.982422 C 52.001296 10.344667 50.649901 9 49.011719 9 L 49 9 C 47.35503 9 46 10.35503 46 12 L 46 16 L 46 19 C 46 19.56503 45.56503 20 45 20 C 44.43497 20 44 19.56503 44 19 L 44 16 A 1.0001 1.0001 0 0 0 43 15 L 23 15 A 1.0001 1.0001 0 0 0 22 16 L 22 19 C 22 19.56503 21.56503 20 21 20 C 20.43497 20 20 19.56503 20 19 L 20 16 L 20 12 C 20 10.35503 18.64497 9 17 9 z M 17 11 C 17.56503 11 18 11.43497 18 12 L 18 16 L 18 19 C 18 20.64497 19.35503 22 21 22 C 22.64497 22 24 20.64497 24 19 L 24 17 L 42 17 L 42 19 C 42 20.64497 43.35503 22 45 22 C 46.64497 22 48 20.64497 48 19 L 48 16 L 48 12 C 48 11.43497 48.43497 11 49 11 L 49.011719 11 C 49.573537 11 50.008141 11.431895 50.011719 11.994141 L 50.037109 16.005859 A 1.0001 1.0001 0 0 0 51.037109 17 L 52.78125 17 C 54.017638 17 55 17.982362 55 19.21875 L 55 24 L 42 24 A 1.0001 1.0001 0 0 0 41 25 L 41 32 L 34 32 L 34 25 A 1.0001 1.0001 0 0 0 33 24 L 24 24 A 1.0001 1.0001 0 0 0 23 25 L 23 32 L 16 32 A 1.0001 1.0001 0 0 0 15 33 L 15 41 A 1.0001 1.0001 0 0 0 16 42 L 23 42 L 23 49 A 1.0001 1.0001 0 1 0 25 49 L 25 42 L 32 42 L 32 49 A 1.0001 1.0001 0 0 0 33 50 L 42 50 A 1.0001 1.0001 0 0 0 43 49 L 43 42 L 50 42 A 1.0001 1.0001 0 1 0 50 40 L 43 40 L 43 34 L 55 34 L 55 50.78125 C 55 52.017638 54.017638 53 52.78125 53 L 13.21875 53 C 11.982362 53 11 52.017638 11 50.78125 L 11 19.21875 C 11 17.982362 11.982362 17 13.21875 17 L 15 17 A 1.0001 1.0001 0 0 0 16 16 L 16 12 C 16 11.43497 16.43497 11 17 11 z M 25 26 L 32 26 L 32 32 L 25 32 L 25 26 z M 17 34 L 23 34 L 23 40 L 17 40 L 17 34 z M 25 34 L 32 34 L 32 40 L 25 40 L 25 34 z M 34 34 L 41 34 L 41 40 L 34 40 L 34 34 z M 34 42 L 41 42 L 41 48 L 34 48 L 34 42 z"/></svg>