<?xml version="1.0" encoding="utf-8"?>
<!-- Generator: Adobe Illustrator 24.3.0, SVG Export Plug-In . SVG Version: 6.00 Build 0)  -->
<svg version="1.1" id="Layer_1" xmlns="http://www.w3.org/2000/svg" xmlns:xlink="http://www.w3.org/1999/xlink" x="0px" y="0px"
	 viewBox="0 0 64 64" style="enable-background:new 0 0 64 64;" xml:space="preserve">
<style type="text/css">
	.st0{fill:#010102;}
</style>
<path d="M26.5,9c-2.5,0.5-4.9,1.3-7.2,2.5c0.1,2,0.2,4,0.4,5.9c-0.9,0.6-1.8,1.1-2.6,1.7c-0.8,0.6-1.7,1.3-2.5,2
	c-1.5-1-3.1-2-4.8-2.8c-1.8,1.9-3.5,4-4.8,6.3c1.1,1.7,2.2,3.4,3.3,4.7v11.5v1.5v1.3c0,0,0.1,0,0.1,0l8.8,0.8c0.5,0,0.8,0.4,0.9,0.9
	l0.3,3.9l7.6,0.5l0.5-3.6c0.1-0.5,0.5-0.8,0.9-0.8h9.2c0.5,0,0.9,0.3,0.9,0.8l0.5,3.6l7.6-0.5l0.3-3.9c0-0.5,0.4-0.8,0.9-0.9
	l8.8-0.8c0,0,0.1,0,0.1,0v-1.1l0,0V29.4c1.2-1.6,2.4-3.3,3.3-4.7c-1.4-2.3-3-4.4-4.8-6.3c-1.7,0.8-3.3,1.8-4.8,2.8
	c-0.8-0.8-1.6-1.4-2.5-2c-0.8-0.7-1.8-1.2-2.6-1.7c0.3-2,0.4-3.9,0.4-5.9c-2.3-1.2-4.7-1.9-7.2-2.5c-1,1.7-1.9,3.4-2.7,5.2
	C33.9,14,33,14,32,14v0c0,0,0,0,0,0c0,0,0,0,0,0v0c-0.9,0-1.9,0.1-2.8,0.2C28.4,12.5,27.5,10.7,26.5,9z M19.6,29.9
	c2.9,0,5.3,2.4,5.3,5.3c0,2.9-2.4,5.3-5.3,5.3c-2.9,0-5.3-2.4-5.3-5.3C14.3,32.3,16.7,29.9,19.6,29.9z M44.4,29.9
	c2.9,0,5.3,2.4,5.3,5.3c0,2.9-2.4,5.3-5.3,5.3c-2.9,0-5.3-2.4-5.3-5.3C39.1,32.3,41.5,29.9,44.4,29.9z M32,33c0.9,0,1.7,0.7,1.7,1.5
	v4.9c0,0.9-0.8,1.5-1.7,1.5s-1.7-0.7-1.7-1.5v-4.9C30.3,33.7,31.1,33,32,33z"/>
<path class="st0" d="M47.8,46.3l-0.3,3.9c0,0.5-0.4,0.8-0.9,0.9l-9.3,0.7c0,0,0,0-0.1,0c-0.5,0-0.9-0.3-0.9-0.8l-0.5-3.6h-7.6
	l-0.5,3.6c-0.1,0.5-0.5,0.8-1,0.8l-9.3-0.7c-0.5,0-0.8-0.4-0.9-0.9l-0.3-3.9l-7.9-0.8c0,0.8,0,1.8,0,2c0,8.3,10.5,12.3,23.7,12.4h0
	h0c13.1,0,23.7-4,23.7-12.4c0-0.2,0-1.1,0-2L47.8,46.3z"/>
<path d="M23.6,35.5c0,1.9-1.6,3.5-3.5,3.5c-1.9,0-3.5-1.6-3.5-3.5s1.6-3.5,3.5-3.5C22,32,23.6,33.6,23.6,35.5"/>
<path d="M40.4,35.5c0,1.9,1.6,3.5,3.5,3.5c1.9,0,3.5-1.6,3.5-3.5S45.8,32,43.9,32C42,32,40.4,33.6,40.4,35.5"/>
</svg>
