<svg xmlns="http://www.w3.org/2000/svg"  viewBox="0 0 64 64" width="64px" height="64px"><path d="M 25 8 C 19.140673 8 13 12.530167 13 21 C 13 26.57408 14.563438 30.525018 16.152344 33.070312 C 17.417284 35.096641 18.512235 36.048583 19 36.443359 L 19 41.363281 L 9.1074219 45.978516 C 5.8139256 47.515639 4 51.56377 4 55 A 1.0001 1.0001 0 0 0 5 56 L 45 56 A 1.0001 1.0001 0 1 0 45 54 L 6.1445312 54 C 6.4896937 51.518276 7.984212 48.709937 9.953125 47.791016 L 20.421875 42.90625 A 1.0001 1.0001 0 0 0 21 42 L 21 36 A 1.0001 1.0001 0 0 0 20.576172 35.181641 C 20.576172 35.181641 19.258751 34.272175 17.847656 32.011719 C 16.436562 29.751263 15 26.20292 15 21 C 15 13.469833 20.135327 10 25 10 C 27.708934 10 30.479329 10.93033 32.541016 12.75 C 34.602702 14.56967 36 17.255333 36 21 C 36 26.20292 34.563438 29.751263 33.152344 32.011719 C 31.741249 34.272175 30.423828 35.181641 30.423828 35.181641 A 1.0001 1.0001 0 0 0 30 36 L 30 42 A 1.0001 1.0001 0 0 0 30.552734 42.894531 L 44.552734 49.894531 A 1.0001 1.0001 0 0 0 45 50 L 58 50 A 1.0001 1.0001 0 0 0 59 49 C 59 45.559368 57.052755 42.407652 53.974609 40.869141 L 45 36.382812 L 45 33.421875 C 45.960523 32.565346 51 27.739786 51 19.871094 C 51 13.220983 44.517766 7.2750612 36.779297 9.0253906 A 1.0001 1.0001 0 1 0 37.220703 10.974609 C 43.780234 9.4909392 49 14.521205 49 19.871094 C 49 27.552558 43.363281 32.228516 43.363281 32.228516 A 1.0001 1.0001 0 0 0 43 33 L 43 37 A 1.0001 1.0001 0 0 0 43.552734 37.894531 L 53.080078 42.658203 C 55.176514 43.706039 56.530323 45.723162 56.859375 48 L 45.236328 48 L 32 41.382812 L 32 36.443359 C 32.487765 36.048583 33.582716 35.096641 34.847656 33.070312 C 36.436562 30.525018 38 26.57408 38 21 C 38 16.744667 36.333595 13.43033 33.863281 11.25 C 31.392968 9.0696701 28.163066 8 25 8 z"/></svg>