<svg xmlns="http://www.w3.org/2000/svg"  viewBox="0 0 64 64" width="64px" height="64px"><path d="M 4 0 A 4 4 0 0 0 0 4 L 0 46 A 4 4 0 0 0 4 50 L 5 50 A 1 1 0 0 0 5 48 L 4 48 A 2 2 0 0 1 2 46 L 2 4 A 2 2 0 0 1 4 2 L 46 2 A 2 2 0 0 1 48 4 L 48 7 L 11 7 A 4 4 0 0 0 7 11 L 7 53 A 4 4 0 0 0 11 57 L 12 57 A 1 1 0 0 0 12 55 L 11 55 A 2 2 0 0 1 9 53 L 9 11 A 2 2 0 0 1 11 9 L 53 9 A 2 2 0 0 1 55 11 L 55 12 A 1 1 0 0 0 57 12 L 57 11 A 4 4 0 0 0 53 7 L 50 7 L 50 4 A 4 4 0 0 0 46 0 L 4 0 z M 18 14 A 4 4 0 0 0 14 18 L 14 60 A 4 4 0 0 0 18 64 L 60 64 A 4 4 0 0 0 64 60 L 64 18 A 4 4 0 0 0 60 14 L 18 14 z M 18 16 L 60 16 A 2 2 0 0 1 62 18 L 62 60 A 2 2 0 0 1 60 62 L 18 62 A 2 2 0 0 1 16 60 L 16 48.457031 L 30 36.322266 L 44.345703 48.755859 A 1.0002805 1.0002805 0 0 0 45.654297 47.244141 L 40.527344 42.800781 L 48 36.322266 L 59.345703 46.15625 A 1.0002805 1.0002805 0 0 0 60.654297 44.644531 L 48.654297 34.244141 A 1 1 0 0 0 47.345703 34.244141 L 39 41.476562 L 30.654297 34.244141 A 1 1 0 0 0 29.345703 34.244141 L 16 45.810547 L 16 18 A 2 2 0 0 1 18 16 z M 38.833984 25.003906 A 4 4 0 0 0 39 33 A 4 4 0 0 0 43 29 A 4 4 0 0 0 38.833984 25.003906 z M 39 27 A 2 2 0 0 1 41 29 A 2 2 0 1 1 39 27 z"/></svg>