<svg xmlns="http://www.w3.org/2000/svg"  viewBox="0 0 128 128" width="64px" height="64px"><path d="M114 1H14C6.8 1 1 6.8 1 14v10 4c0 1.7 1.3 3 3 3h120c1.7 0 3-1.3 3-3V14C127 6.8 121.2 1 114 1zM22 19h-4c-1.7 0-3-1.3-3-3s1.3-3 3-3h4c1.7 0 3 1.3 3 3S23.7 19 22 19zM38 19h-4c-1.7 0-3-1.3-3-3s1.3-3 3-3h4c1.7 0 3 1.3 3 3S39.7 19 38 19zM110 19H76c-1.7 0-3-1.3-3-3s1.3-3 3-3h34c1.7 0 3 1.3 3 3S111.7 19 110 19zM124 37H4c-1.7 0-3 1.3-3 3v74c0 7.2 5.8 13 13 13h100c7.2 0 13-5.8 13-13V40C127 38.3 125.7 37 124 37zM47 108c0 1.7-1.3 3-3 3s-3-1.3-3-3V56c0-1.7 1.3-3 3-3s3 1.3 3 3V108zM87 108c0 1.7-1.3 3-3 3s-3-1.3-3-3V56c0-1.7 1.3-3 3-3s3 1.3 3 3V108z"/></svg>