<svg id="Layer_1" data-name="Layer 1" xmlns="http://www.w3.org/2000/svg" viewBox="0 0 430 430">
  <circle cx="215" cy="215" r="149.4" style="fill: none;stroke: #e4ab23;stroke-miterlimit: 10;stroke-width: 30px"/>
  <g>
    <polygon points="204.29 263.45 131.46 137.31 142.17 118.75 287.83 118.75 298.54 137.31 225.71 263.45 204.29 263.45" style="fill: #1b314b"/>
    <path d="M284.94,123.75l5.38,9.32,2.45,4.24-35,60.57-35,60.57H207.17l-35-60.57-35-60.57,2.29-4,5.54-9.59H284.94m5.78-10H139.28c-6,10.47-7.55,13.09-13.6,23.56l37.86,65.57,37.86,65.57h27.2l37.86-65.57,37.86-65.57c-6.05-10.47-7.56-13.09-13.6-23.56Z" style="fill: #a7b8c1"/>
  </g>
  <g>
    <polygon points="33.26 311.25 22.55 292.69 95.38 166.55 116.8 166.55 189.63 292.69 178.92 311.25 33.26 311.25" style="fill: #1b314b"/>
    <path d="M113.91,171.55l35,60.57,35,60.57,0,.07L176,306.25H36.14l-3.91-6.78-3.91-6.78,35-60.57,35-60.57h15.65m5.78-10H92.49L54.63,227.12,16.77,292.69c6.05,10.47,7.56,13.09,13.6,23.56H181.81l13.59-23.56-37.85-65.57-37.86-65.57Z" style="fill: #a7b8c1"/>
  </g>
  <g>
    <polygon points="251.08 311.25 240.37 292.69 313.2 166.55 334.62 166.55 407.45 292.69 396.74 311.25 251.08 311.25" style="fill: #1b314b"/>
    <path d="M331.74,171.55l35,60.57,35,60.57-5.84,10.12-2,3.44H254l-3.92-6.78-3.91-6.78,35-60.57,35-60.57h15.65m5.77-10h-27.2l-37.86,65.57L234.6,292.69l13.59,23.56H399.63c6-10.47,7.55-13.09,13.6-23.56l-37.86-65.57-37.86-65.57Z" style="fill: #a7b8c1"/>
  </g>
</svg>
