<?xml version="1.0"?><svg xmlns="http://www.w3.org/2000/svg"  viewBox="0 0 50 50" width="50px" height="50px">    <path d="M 25 2 C 21 2 20 4 20 4 L 20 18 L 30 18 L 30 4 C 30 4 29 2 25 2 z M 18 7.5683594 C 17.209 8.1253594 15.859734 8.9514688 13.552734 10.105469 C 9.3197344 12.222469 6.6821875 15.560875 6.1171875 19.421875 C 7.8861875 18.519875 9.882 18 12 18 L 12.578125 18 C 13.517125 16.32 15.524 14.791422 18 14.232422 L 18 7.5683594 z M 32 7.5683594 L 32 14.230469 C 34.476 14.790469 36.482875 16.32 37.421875 18 L 38 18 C 40.143 18 42.109844 18.419063 43.839844 19.164062 C 43.196844 15.412063 40.586266 12.175469 36.447266 10.105469 C 34.140266 8.9524688 32.791 8.1263594 32 7.5683594 z M 12 20 C 5.935 20 1 24.935 1 31 L 1 37 C 1 43.065 5.935 48 12 48 L 38 48 C 44.065 48 49 43.065 49 37 L 49 30 C 49 23.935 44.065 20 38 20 L 12 20 z M 16 22 L 34 22 C 34 24.209 32.209 26 30 26 L 26 26 L 26 38.140625 C 27.722 38.586625 29 40.138 29 42 C 29 44.209 27.209 46 25 46 C 22.791 46 21 44.209 21 42 C 21 40.138 22.278 38.586625 24 38.140625 L 24 26 L 20 26 C 17.791 26 16 24.209 16 22 z M 12.5 24 C 13.881 24 15 25.119 15 26.5 C 15 27.881 13.881 29 12.5 29 C 11.119 29 10 27.881 10 26.5 C 10 25.119 11.119 24 12.5 24 z M 37.5 24 C 38.881 24 40 25.119 40 26.5 C 40 27.881 38.881 29 37.5 29 C 36.119 29 35 27.881 35 26.5 C 35 25.119 36.119 24 37.5 24 z M 19.5 28 C 20.881 28 22 29.119 22 30.5 C 22 31.881 20.881 33 19.5 33 C 18.119 33 17 31.881 17 30.5 C 17 29.119 18.119 28 19.5 28 z M 30.5 28 C 31.881 28 33 29.119 33 30.5 C 33 31.881 31.881 33 30.5 33 C 29.119 33 28 31.881 28 30.5 C 28 29.119 29.119 28 30.5 28 z M 7.5 33 C 8.881 33 10 34.119 10 35.5 C 10 36.881 8.881 38 7.5 38 C 6.119 38 5 36.881 5 35.5 C 5 34.119 6.119 33 7.5 33 z M 42.5 33 C 43.881 33 45 34.119 45 35.5 C 45 36.881 43.881 38 42.5 38 C 41.119 38 40 36.881 40 35.5 C 40 34.119 41.119 33 42.5 33 z M 25 41 A 1 1 0 0 0 24 42 A 1 1 0 0 0 25 43 A 1 1 0 0 0 26 42 A 1 1 0 0 0 25 41 z M 12.5 42 C 13.881 42 15 43.119 15 44.5 C 15 45.065 14.804281 45.581 14.488281 46 L 12 46 C 11.453 46 10.920391 45.943609 10.400391 45.849609 C 10.149391 45.460609 10 44.998 10 44.5 C 10 43.119 11.119 42 12.5 42 z M 37.5 42 C 38.881 42 40 43.119 40 44.5 C 40 44.998 39.850609 45.460609 39.599609 45.849609 C 39.079609 45.943609 38.547 46 38 46 L 35.511719 46 C 35.195719 45.581 35 45.065 35 44.5 C 35 43.119 36.119 42 37.5 42 z"/></svg>