<?xml version="1.0" encoding="utf-8"?>
<!-- Generator: Adobe Illustrator 24.3.0, SVG Export Plug-In . SVG Version: 6.00 Build 0)  -->
<svg version="1.1" id="Layer_1" xmlns="http://www.w3.org/2000/svg" xmlns:xlink="http://www.w3.org/1999/xlink" x="0px" y="0px"
	 viewBox="0 0 1160 745" style="enable-background:new 0 0 1160 745;" xml:space="preserve">
<style type="text/css">
	.st0{fill:none;}
	.st1{opacity:0.5;fill:#0B1D34;}
	.st2{opacity:0.5;fill:#1C314B;}
	.st3{opacity:0.25;fill:#0B1D34;}
</style>
<g>
	<path class="st0" d="M1042.5,692.5v-3h8.7V626c0-15.7-12.8-28.5-28.5-28.5H879.3c-7.6,0-14.8,3-20.1,8.3l-2.3,2.3l0,8.6l-3,0l0-5.6
		l-51.4,51.3c-5.9,5.9-13.9,9.2-22.3,9.2h-74.6c-8.4,0-16.3-3.3-22.3-9.2v0l-42-42l0,0c-3.3,1.4-6.4,3.5-8.9,6l-6.1,6.1l-1.3-1.3
		L624.5,745h426.6v-52.5H1042.5z M853.7,636.8l3,0l-0.1,20l-3,0L853.7,636.8z M822.3,692.3c-6.9-0.9-13.4-4.1-18.3-9l-0.1-0.1
		l2.1-2.1l0.1,0.1c4.5,4.4,10.3,7.3,16.6,8.1L822.3,692.3z M856.3,736.8l-3,0l0.1-20l3,0L856.3,736.8z M862.5,692.5h-6l0,4.3l-3,0
		l0-4.3h-11v-3h11l0.1-12.7l3,0l-0.1,12.7h6V692.5z M902.5,692.5h-20v-3h20V692.5z M942.5,692.5h-20v-3h20V692.5z M982.5,692.5h-20
		v-3h20V692.5z M1022.5,692.5h-20v-3h20V692.5z"/>
	<path class="st0" d="M55.2,333.2c0-8.4,3.3-16.3,9.3-22.2l56.9-56.5c5.4-5.4,8.4-12.5,8.4-20.1l0.3-74.6c0-7.6-2.9-14.8-8.3-20.2
		l-56.5-57c-5.9-6-9.2-13.9-9.1-22.3L56.6,0H0v714.1l53.9-54.3L55.2,333.2z"/>
	<path class="st0" d="M606.4,597.5H381.5v9.2h-3v-9.2h-89.6l0,4.3l-3,0l0-4.3H131.7c-7.5,0-14.9,3.1-20.2,8.4l-54.6,55l-0.4,84
		h228.8c0-0.5-0.1-0.9-0.1-1.4l0-1.8l3,0l0,1.8c0,0.5,0,0.9,0.1,1.4h333.2l0.6-142.8C617.5,599.1,612.1,597.5,606.4,597.5z
		 M288.4,721.8l-3,0l0.1-20l3,0L288.4,721.8z M288.5,681.8l-3,0l0.1-20l3,0L288.5,681.8z M288.7,641.8l-3,0l0.1-20l3,0L288.7,641.8z
		 M378.5,626.7h3v20h-3V626.7z M389.3,684.8c-5.3-4.6-9-11-10.3-17.9l2.9-0.6c1.2,6.2,4.5,12,9.3,16.2L389.3,684.8z M428.5,692.5
		H410c-0.5,0-1,0-1.6,0l0.1-3c0.5,0,0.9,0,1.4,0h18.5V692.5z M468.5,692.5h-20v-3h20V692.5z M508.5,692.5h-20v-3h20V692.5z
		 M548.5,692.5h-20v-3h20V692.5z M575.6,683.3c-2.1,2.1-4.4,3.9-7,5.3l-1.5-2.6c2.3-1.3,4.5-2.9,6.3-4.8l8.2-8.2l2.1,2.1
		L575.6,683.3z M595.9,658.8l14.1-14.1l2.1,2.1L598,660.9L595.9,658.8z"/>
	<polygon class="st0" points="0,718.3 0,745 53.5,745 53.9,664 	"/>
	<path class="st0" d="M1139.1,600.3c0,0-0.1,0-0.1,0c-8.3,0-16.4-3.4-22.3-9.2l-50.6-50.6c-5.9-5.9-9.3-14.1-9.2-22.4l1.4-337.9
		c0-8.4,3.3-16.3,9.3-22.2l56.9-56.5c5.4-5.4,8.4-12.5,8.4-20.1l0.3-81.2H859.4l-0.1,16.8l-3,0L856.4,0H627.6l-2.5,600.6
		c1.3,0.9,2.4,2,3.6,3.1l56.7,56.7c5.4,5.4,12.5,8.3,20.1,8.3h74.6c2.8,0,5.5-0.4,8.1-1.2l-12.7-12.7l2.1-2.1l13.7,13.7
		c3.3-1.4,6.3-3.4,8.9-6.1l53.5-53.5l0-10.1l3,0l0,7.1l0.2-0.2c5.9-5.9,13.9-9.2,22.3-9.2h143.3c17.4,0,31.5,14.1,31.5,31.5v63.5
		h8.3v3h-8.3V745H1160V600.2L1139.1,600.3z M1069.2,121.5h20v3h-20V121.5z M649.2,124.5h-20v-3h20V124.5z M680.4,618.3h-20v-3h20
		V618.3z M689.2,124.5h-20v-3h20V124.5z M720.4,618.3h-20v-3h20V618.3z M729.2,124.5h-20v-3h20V124.5z M761.4,640.7l-14.1-14.1
		c-2.3-2.3-5-4.2-7.9-5.6l1.3-2.7c3.3,1.5,6.2,3.6,8.8,6.2l14.1,14.1L761.4,640.7z M769.2,124.5h-20v-3h20V124.5z M809.2,124.5h-20
		v-3h20V124.5z M849.2,124.5h-20v-3h20V124.5z M857,576.8l-3,0l0.1-20l3,0L857,576.8z M857.1,536.8l-3,0l0.1-20l3,0L857.1,536.8z
		 M857.3,496.8l-3,0l0.1-20l3,0L857.3,496.8z M857.5,456.8l-3,0l0.1-20l3,0L857.5,456.8z M857.6,416.8l-3,0l0.1-20l3,0L857.6,416.8z
		 M857.8,376.8l-3,0l0.1-20l3,0L857.8,376.8z M858,336.8l-3,0l0.1-20l3,0L858,336.8z M858.1,296.8l-3,0l0.1-20l3,0L858.1,296.8z
		 M858.3,256.8l-3,0l0.1-20l3,0L858.3,256.8z M858.5,216.8l-3,0l0.1-20l3,0L858.5,216.8z M858.6,176.8l-3,0l0.1-20l3,0L858.6,176.8z
		 M858.8,136.8l-3,0l0.1-20l3,0L858.8,136.8z M859,96.8l-3,0l0.1-20l3,0L859,96.8z M859.1,56.8l-3,0l0.1-20l3,0L859.1,56.8z
		 M889.2,124.5h-20v-3h20V124.5z M929.2,124.5h-20v-3h20V124.5z M969.2,124.5h-20v-3h20V124.5z M1009.2,124.5h-20v-3h20V124.5z
		 M1049.2,124.5h-20v-3h20V124.5z M1102.5,692.5h-20v-3h20V692.5z M1142.5,692.5h-20v-3h20V692.5z"/>
	<path class="st0" d="M67.6,80.5l56.5,57c5.9,6,9.2,13.9,9.1,22.3l-0.3,74.6c0,8.4-3.3,16.3-9.3,22.2l-1.1-1.1l1.1,1.1l-56.9,56.5
		c-5.4,5.4-8.4,12.5-8.4,20.1l-1.3,323.5l52.4-52.9c5.9-5.9,14-9.3,22.4-9.3h154.2l0.1-12.7l3,0l-0.1,12.7h89.6v-7.8h3v7.8h224.9
		c5.6,0,11,1.5,15.7,4.2L624.6,0h-259l0,2.3l-3,0l0-2.3h-303l-0.3,60.3C59.3,68,62.3,75.1,67.6,80.5z M589.2,121.5h20v3h-20V121.5z
		 M549.2,121.5h20v3h-20V121.5z M509.2,121.5h20v3h-20V121.5z M469.2,121.5h20v3h-20V121.5z M429.2,121.5h20v3h-20V121.5z
		 M409.2,121.5l0.1,3c-6.5,0.2-12.5,2.4-17.4,6.6l-1.9-2.3C395.4,124.2,402,121.7,409.2,121.5z M378.5,153c0-2.2,0.2-4.4,0.7-6.6
		l2.9,0.6c-0.4,2-0.6,4-0.6,6v13.7h-3V153z M378.5,186.7h3v20h-3V186.7z M378.5,226.7h3v20h-3V226.7z M378.5,266.7h3v20h-3V266.7z
		 M378.5,306.7h3v20h-3V306.7z M378.5,346.7h3v20h-3V346.7z M378.5,386.7h3v20h-3V386.7z M378.5,426.7h3v20h-3V426.7z M378.5,466.7
		h3v20h-3V466.7z M378.5,506.7h3v20h-3V506.7z M378.5,546.7h3v20h-3V546.7z M362.5,22.3l3,0l-0.1,20l-3,0L362.5,22.3z M362.4,62.3
		l3,0l-0.1,20l-3,0L362.4,62.3z M362.2,102.3l3,0l-0.1,20l-3,0L362.2,102.3z M362,142.3l3,0l-0.1,20l-3,0L362,142.3z M361.9,182.3
		l3,0l-0.1,20l-3,0L361.9,182.3z M361.7,222.3l3,0l-0.1,20l-3,0L361.7,222.3z M361.5,262.3l3,0l-0.1,20l-3,0L361.5,262.3z
		 M361.3,306.7l0-4.4l3,0l0,4.4c0,5.5-1.5,10.9-4.2,15.6l-2.6-1.5C360,316.6,361.3,311.7,361.3,306.7z M352.9,326.8l2.1,2.1
		L340.8,343l-2.1-2.1L352.9,326.8z M324.5,355l2.1,2.1l-14.2,14.1l-2.1-2.1L324.5,355z M296,383.3l0.1-0.1l2.1,2.1l-0.1,0.1
		c-4.5,4.4-7.4,10.3-8.2,16.6l-3-0.4C287.8,394.7,291,388.2,296,383.3z M286.6,421.8l3,0l-0.1,20l-3,0L286.6,421.8z M286.4,461.8
		l3,0l-0.1,20l-3,0L286.4,461.8z M286.3,501.8l3,0l-0.1,20l-3,0L286.3,501.8z M286.1,541.8l3,0l-0.1,20l-3,0L286.1,541.8z"/>
	<path class="st0" d="M639,618.3l-12.5-12.4c-0.5-0.5-1-0.9-1.5-1.4l-0.1,25.2l5.2-5.2C632.8,621.9,635.8,619.8,639,618.3z"/>
	<path class="st0" d="M1126.6,103.5l-56.9,56.5c-5.4,5.4-8.4,12.5-8.4,20.1l-1.4,337.9c0,7.5,3,14.9,8.4,20.3l50.6,50.6
		c5.3,5.3,12.7,8.3,20.2,8.3c0,0,0.1,0,0.1,0l20.9-0.1V124.5h-10.8v-3h10.8V0h-23.8l-0.3,81.3C1135.9,89.7,1132.6,97.6,1126.6,103.5
		z M1129.2,124.5h-20v-3h20V124.5z"/>
	<polygon class="st1" points="285.9,601.8 288.9,601.8 288.9,597.5 285.9,597.5 	"/>
	<polygon class="st1" points="288.9,581.8 285.9,581.8 285.9,594.5 288.9,594.5 	"/>
	
		<rect x="847" y="205.3" transform="matrix(4.231733e-03 -1 1 4.231733e-03 646.5642 1062.937)" class="st1" width="20" height="3"/>
	
		<rect x="847.2" y="165.3" transform="matrix(4.231733e-03 -1 1 4.231733e-03 686.7296 1023.2737)" class="st1" width="20" height="3"/>
	
		<rect x="846.8" y="245.3" transform="matrix(4.231733e-03 -1 1 4.231733e-03 606.3983 1102.6007)" class="st1" width="20" height="3"/>
	
		<rect x="846.5" y="325.3" transform="matrix(4.231733e-03 -1 1 4.231733e-03 526.0674 1181.9272)" class="st1" width="20" height="3"/>
	<polygon class="st1" points="853.8,616.8 856.8,616.8 856.8,608.2 853.8,611.2 	"/>
	
		<rect x="847.3" y="125.3" transform="matrix(4.231733e-03 -1 1 4.231733e-03 726.8946 983.61)" class="st1" width="20" height="3"/>
	<rect x="847.7" y="45.3" transform="matrix(4.231733e-03 -1 1 4.231733e-03 807.226 904.283)" class="st1" width="20" height="3"/>
	
		<rect x="847.5" y="85.3" transform="matrix(4.231733e-03 -1 1 4.231733e-03 767.0605 943.9462)" class="st1" width="20" height="3"/>
	
		<rect x="846.7" y="285.3" transform="matrix(4.231733e-03 -1 1 4.231733e-03 566.2328 1142.2639)" class="st1" width="20" height="3"/>
	
		<rect x="845.8" y="485.3" transform="matrix(3.906220e-03 -1 1 3.906220e-03 365.6831 1340.7413)" class="st1" width="20" height="3"/>
	
		<rect x="845.7" y="525.3" transform="matrix(3.906220e-03 -1 1 3.906220e-03 325.518 1380.4181)" class="st1" width="20" height="3"/>
	
		<rect x="845.5" y="565.3" transform="matrix(3.906220e-03 -1 1 3.906220e-03 285.3525 1420.0944)" class="st1" width="20" height="3"/>
	<polygon class="st1" points="856.9,596.8 853.9,596.8 853.8,606.9 856.8,603.9 	"/>
	
		<rect x="846.2" y="405.3" transform="matrix(3.906220e-03 -1 1 3.906220e-03 446.0147 1261.3883)" class="st1" width="20" height="3"/>
	
		<rect x="846.3" y="365.3" transform="matrix(4.557244e-03 -1 1 4.557244e-03 485.6237 1221.4708)" class="st1" width="20" height="3"/>
	
		<rect x="846" y="445.3" transform="matrix(3.906220e-03 -1 1 3.906220e-03 405.8491 1301.0646)" class="st1" width="20" height="3"/>
	<polygon class="st1" points="859.3,16.8 859.4,0 856.4,0 856.3,16.8 	"/>
	<polygon class="st1" points="365.6,2.3 365.6,0 362.6,0 362.6,2.3 	"/>
	<rect x="353" y="270.8" transform="matrix(4.231733e-03 -1 1 4.231733e-03 89.1107 634.1507)" class="st1" width="20" height="3"/>
	
		<rect x="336.9" y="333.4" transform="matrix(0.7098 -0.7044 0.7044 0.7098 -135.2635 341.5391)" class="st1" width="20" height="3"/>
	<path class="st1" d="M364.3,306.7l0-4.4l-3,0l0,4.4c0,5-1.3,9.9-3.8,14.2l2.6,1.5C362.8,317.6,364.3,312.2,364.3,306.7z"/>
	
		<rect x="353.1" y="230.8" transform="matrix(4.231733e-03 -1 1 4.231733e-03 129.2764 594.4872)" class="st1" width="20" height="3"/>
	
		<rect x="353.8" y="70.8" transform="matrix(4.231733e-03 -1 1 4.231733e-03 289.9381 435.8332)" class="st1" width="20" height="3"/>
	
		<rect x="353.3" y="190.8" transform="matrix(4.231733e-03 -1 1 4.231733e-03 169.4418 554.824)" class="st1" width="20" height="3"/>
	<rect x="353.5" y="150.8" transform="matrix(4.231733e-03 -1 1 4.231733e-03 209.607 515.16)" class="st1" width="20" height="3"/>
	
		<rect x="353.6" y="110.8" transform="matrix(4.231733e-03 -1 1 4.231733e-03 249.7725 475.4967)" class="st1" width="20" height="3"/>
	
		<rect x="277.6" y="550.3" transform="matrix(3.906220e-03 -1 1 3.906220e-03 -265.351 837.1945)" class="st1" width="20" height="3"/>
	
		<rect x="277.2" y="630.3" transform="matrix(3.906220e-03 -1 1 3.906220e-03 -345.6819 916.5472)" class="st1" width="20" height="3"/>
	
		<rect x="277.7" y="510.3" transform="matrix(3.906220e-03 -1 1 3.906220e-03 -225.1852 797.5175)" class="st1" width="20" height="3"/>
	<path class="st1" d="M298.1,385.4l0.1-0.1l-2.1-2.1l-0.1,0.1c-4.9,4.9-8.2,11.4-9,18.3l3,0.4C290.7,395.8,293.6,389.9,298.1,385.4z
		"/>
	
		<rect x="308.5" y="361.6" transform="matrix(0.7097 -0.7045 0.7045 0.7097 -163.3551 329.7725)" class="st1" width="20" height="3"/>
	
		<rect x="277.9" y="470.3" transform="matrix(3.906220e-03 -1 1 3.906220e-03 -185.0197 757.8412)" class="st1" width="20" height="3"/>
	
		<rect x="278.1" y="430.3" transform="matrix(3.906220e-03 -1 1 3.906220e-03 -144.8546 718.1644)" class="st1" width="20" height="3"/>
	
		<rect x="277.1" y="670.3" transform="matrix(3.906220e-03 -1 1 3.906220e-03 -385.8476 956.2242)" class="st1" width="20" height="3"/>
	<polygon class="st1" points="853.5,696.8 856.5,696.8 856.5,692.5 853.5,692.5 	"/>
	<rect x="354" y="30.8" transform="matrix(4.231733e-03 -1 1 4.231733e-03 330.1034 396.1693)" class="st1" width="20" height="3"/>
	
		<rect x="844.8" y="725.3" transform="matrix(3.906220e-03 -1 1 3.906220e-03 124.6898 1578.8009)" class="st1" width="20" height="3"/>
	<path class="st1" d="M288.3,741.8l-3,0l0,1.8c0,0.5,0,0.9,0.1,1.4h3c0-0.5-0.1-0.9-0.1-1.4L288.3,741.8z"/>
	
		<rect x="845.2" y="645.3" transform="matrix(3.906220e-03 -1 1 3.906220e-03 205.0214 1499.4469)" class="st1" width="20" height="3"/>
	<polygon class="st1" points="856.5,676.8 853.5,676.8 853.5,689.5 856.5,689.5 	"/>
	
		<rect x="276.9" y="710.3" transform="matrix(3.906220e-03 -1 1 3.906220e-03 -426.0129 995.9008)" class="st1" width="20" height="3"/>
	<path class="st2" d="M1124.5,101.4l-56.9,56.5c-6,5.9-9.3,13.8-9.3,22.2l-1.4,337.9c0,8.3,3.3,16.5,9.2,22.4l50.6,50.6
		c5.9,5.9,14,9.2,22.3,9.2c0,0,0.1,0,0.1,0l20.9-0.1v-3l-20.9,0.1c0,0-0.1,0-0.1,0c-7.5,0-14.9-3-20.2-8.3l-50.6-50.6
		c-5.3-5.3-8.4-12.7-8.4-20.3l1.4-337.9c0-7.6,3-14.8,8.4-20.1l56.9-56.5c6-5.9,9.3-13.8,9.3-22.2l0.3-81.3h-3l-0.3,81.2
		C1132.9,88.8,1129.9,96,1124.5,101.4z"/>
	<path class="st3" d="M625.1,600.6L627.6,0h-3l-2.5,598.7C623.2,599.3,624.2,599.9,625.1,600.6z"/>
	<path class="st3" d="M65.5,82.6l56.5,57c5.4,5.4,8.3,12.6,8.3,20.2l-0.3,74.6c0,7.6-3,14.8-8.4,20.1L64.5,311
		c-6,5.9-9.3,13.8-9.3,22.2l-1.4,326.5l3-3l1.3-323.5c0-7.6,3-14.8,8.4-20.1l56.9-56.5l-1.1-1.1l1.1,1.1c6-5.9,9.3-13.8,9.3-22.2
		l0.3-74.6c0-8.4-3.2-16.3-9.1-22.3l-56.5-57c-5.4-5.4-8.3-12.6-8.3-20.2L59.6,0h-3l-0.3,60.3C56.3,68.7,59.6,76.7,65.5,82.6z"/>
	<path class="st3" d="M624.2,630.5l0.8-0.8l0.1-25.2c-1-0.8-2-1.6-3-2.3L621.5,745h3l0.5-113.6L624.2,630.5z"/>
	<polygon class="st3" points="53.9,664 53.5,745 56.5,745 56.9,661 	"/>
	<rect x="549.2" y="121.5" class="st3" width="20" height="3"/>
	<path class="st3" d="M408.6,689.5l-0.1,3c0.5,0,1,0,1.6,0h18.5v-3H410C409.5,689.5,409.1,689.5,408.6,689.5z"/>
	<rect x="448.5" y="689.5" class="st3" width="20" height="3"/>
	<rect x="488.5" y="689.5" class="st3" width="20" height="3"/>
	<path class="st3" d="M382,666.3l-2.9,0.6c1.3,6.9,5,13.2,10.3,17.9l2-2.3C386.5,678.3,383.2,672.6,382,666.3z"/>
	<rect x="378.5" y="586.7" class="st3" width="3" height="7.8"/>
	<rect x="378.5" y="546.7" class="st3" width="3" height="20"/>
	<rect x="528.5" y="689.5" class="st3" width="20" height="3"/>
	<rect x="378.5" y="626.7" class="st3" width="3" height="20"/>
	<path class="st3" d="M805.9,681l-2.1,2.1l0.1,0.1c4.9,4.9,11.4,8.1,18.3,9l0.4-3c-6.2-0.8-12.1-3.7-16.6-8.1L805.9,681z"/>
	<rect x="378.5" y="597.5" class="st3" width="3" height="9.2"/>
	<polygon class="st3" points="842.5,689.5 842.5,692.5 853.5,692.5 853.5,689.5 	"/>
	<path class="st3" d="M630.2,624.5l-5.2,5.2l0,1.7l1.3,1.3l6.1-6.1c2.6-2.6,5.6-4.6,8.9-6l0,0l-2.2-2.2
		C635.8,619.8,632.8,621.9,630.2,624.5z"/>
	<rect x="594" y="651.3" transform="matrix(0.7074 -0.7068 0.7068 0.7074 -284.6789 617.9191)" class="st3" width="20" height="3"/>
	<path class="st3" d="M573.5,681.2c-1.9,1.9-4,3.5-6.3,4.8l1.5,2.6c2.6-1.4,4.9-3.2,7-5.3l8.2-8.2l-2.1-2.1L573.5,681.2z"/>
	<path class="st3" d="M381.5,153c0-2,0.2-4,0.6-6l-2.9-0.6c-0.5,2.2-0.7,4.4-0.7,6.6v13.7h3V153z"/>
	<rect x="378.5" y="226.7" class="st3" width="3" height="20"/>
	<rect x="378.5" y="186.7" class="st3" width="3" height="20"/>
	<rect x="378.5" y="266.7" class="st3" width="3" height="20"/>
	<rect x="378.5" y="386.7" class="st3" width="3" height="20"/>
	<rect x="378.5" y="306.7" class="st3" width="3" height="20"/>
	<polygon class="st3" points="856.5,692.5 862.5,692.5 862.5,689.5 856.5,689.5 	"/>
	<rect x="378.5" y="506.7" class="st3" width="3" height="20"/>
	<rect x="378.5" y="346.7" class="st3" width="3" height="20"/>
	<rect x="509.2" y="121.5" class="st3" width="20" height="3"/>
	<rect x="469.2" y="121.5" class="st3" width="20" height="3"/>
	<path class="st3" d="M409.2,124.5l-0.1-3c-7.1,0.2-13.8,2.7-19.3,7.3l1.9,2.3C396.7,127,402.8,124.7,409.2,124.5z"/>
	<rect x="589.2" y="121.5" class="st3" width="20" height="3"/>
	<rect x="378.5" y="466.7" class="st3" width="3" height="20"/>
	<rect x="429.2" y="121.5" class="st3" width="20" height="3"/>
	<rect x="1109.2" y="121.5" class="st3" width="20" height="3"/>
	<rect x="749.2" y="121.5" class="st3" width="20" height="3"/>
	<rect x="869.2" y="121.5" class="st3" width="20" height="3"/>
	<rect x="660.4" y="615.3" class="st3" width="20" height="3"/>
	<rect x="829.2" y="121.5" class="st3" width="20" height="3"/>
	<rect x="669.2" y="121.5" class="st3" width="20" height="3"/>
	<rect x="700.4" y="615.3" class="st3" width="20" height="3"/>
	<rect x="709.2" y="121.5" class="st3" width="20" height="3"/>
	<path class="st3" d="M740.6,618.3l-1.3,2.7c3,1.4,5.6,3.3,7.9,5.6l14.1,14.1l2.1-2.1l-14.1-14.1
		C746.8,621.9,743.8,619.8,740.6,618.3z"/>
	<rect x="1029.2" y="121.5" class="st3" width="20" height="3"/>
	<rect x="1082.5" y="689.5" class="st3" width="20" height="3"/>
	<rect x="1122.5" y="689.5" class="st3" width="20" height="3"/>
	<rect x="909.2" y="121.5" class="st3" width="20" height="3"/>
	<rect x="989.2" y="121.5" class="st3" width="20" height="3"/>
	<rect x="949.2" y="121.5" class="st3" width="20" height="3"/>
	<rect x="789.2" y="121.5" class="st3" width="20" height="3"/>
	<rect x="378.5" y="426.7" class="st3" width="3" height="20"/>
	<path class="st3" d="M777.6,652.7l-2.1,2.1l12.7,12.7c1.1-0.3,2.1-0.7,3.1-1.1L777.6,652.7z"/>
	<rect x="1149.2" y="121.5" class="st3" width="10.8" height="3"/>
	<rect x="1042.5" y="689.5" class="st3" width="8.7" height="3"/>
	<rect x="882.5" y="689.5" class="st3" width="20" height="3"/>
	<rect x="1054.2" y="689.5" class="st3" width="8.3" height="3"/>
	<rect x="962.5" y="689.5" class="st3" width="20" height="3"/>
	<rect x="629.2" y="121.5" class="st3" width="20" height="3"/>
	<rect x="1069.2" y="121.5" class="st3" width="20" height="3"/>
	<rect x="1002.5" y="689.5" class="st3" width="20" height="3"/>
	<rect x="922.5" y="689.5" class="st3" width="20" height="3"/>
	<polygon class="st1" points="853.5,689.5 853.5,692.5 856.5,692.5 856.5,689.5 	"/>
	<polygon class="st3" points="853.5,689.5 853.5,692.5 856.5,692.5 856.5,689.5 	"/>
	<polygon class="st3" points="624.2,630.5 625,631.4 625,629.7 	"/>
	<polygon class="st3" points="624.2,630.5 625,631.4 625,629.7 	"/>
	<path class="st2" d="M131.7,594.5c-8.3,0-16.5,3.4-22.4,9.3l-52.4,52.9l0,4.3l54.6-55c5.3-5.4,12.7-8.4,20.2-8.4h154.2l0-3H131.7z"
		/>
	<polygon class="st2" points="288.9,594.5 288.9,597.5 378.5,597.5 378.5,594.5 	"/>
	<path class="st2" d="M606.4,594.5H381.5v3h224.9c5.7,0,11.1,1.6,15.7,4.7l0-3.5C617.4,596,612,594.5,606.4,594.5z"/>
	<polygon class="st2" points="53.9,659.7 0,714.1 0,718.3 53.9,664 	"/>
	<path class="st2" d="M626.6,605.8l12.5,12.4c0.4-0.2,0.7-0.3,1.1-0.5l1.2,2.7l42,42v0c5.9,5.9,13.9,9.2,22.3,9.2h74.6
		c8.4,0,16.3-3.3,22.3-9.2l51.4-51.3l0-4.3l-53.5,53.5c-2.6,2.6-5.6,4.6-8.9,6.1l0.4,0.4l-2.1,2.1l-1.4-1.4
		c-2.6,0.8-5.3,1.2-8.1,1.2h-74.6c-7.6,0-14.8-3-20.1-8.3l-56.7-56.7c-1.1-1.1-2.3-2.1-3.6-3.1l0,3.8
		C625.6,604.9,626.1,605.4,626.6,605.8z"/>
	<path class="st2" d="M859.2,605.8c5.4-5.4,12.5-8.3,20.1-8.3h143.3c15.7,0,28.5,12.8,28.5,28.5v63.5h3V626
		c0-17.4-14.1-31.5-31.5-31.5H879.3c-8.4,0-16.3,3.3-22.3,9.2l-0.2,0.2l0,4.3L859.2,605.8z"/>
	<rect x="1051.2" y="692.5" class="st2" width="3" height="52.5"/>
	<polygon class="st1" points="856.8,608.2 856.8,603.9 853.8,606.9 853.8,611.2 	"/>
	<polygon class="st2" points="856.8,608.2 856.8,603.9 853.8,606.9 853.8,611.2 	"/>
	<polygon class="st1" points="285.9,594.5 285.9,597.5 288.9,597.5 288.9,594.5 	"/>
	<polygon class="st2" points="285.9,594.5 285.9,597.5 288.9,597.5 288.9,594.5 	"/>
	<path class="st3" d="M622.1,602.2c1,0.7,2,1.5,3,2.3l0-3.8c-1-0.7-2-1.4-3-2L622.1,602.2z"/>
	<path class="st2" d="M622.1,602.2c1,0.7,2,1.5,3,2.3l0-3.8c-1-0.7-2-1.4-3-2L622.1,602.2z"/>
	<polygon class="st3" points="53.9,659.7 53.9,664 56.9,661 56.9,656.7 	"/>
	<polygon class="st2" points="53.9,659.7 53.9,664 56.9,661 56.9,656.7 	"/>
	<path class="st3" d="M791.8,666.9l-0.4-0.4c-1,0.4-2.1,0.8-3.1,1.1l1.4,1.4L791.8,666.9z"/>
	<path class="st2" d="M791.8,666.9l-0.4-0.4c-1,0.4-2.1,0.8-3.1,1.1l1.4,1.4L791.8,666.9z"/>
	<path class="st3" d="M639,618.3l2.2,2.2l-1.2-2.7C639.7,617.9,639.4,618.1,639,618.3z"/>
	<path class="st2" d="M639,618.3l2.2,2.2l-1.2-2.7C639.7,617.9,639.4,618.1,639,618.3z"/>
	<rect x="378.5" y="594.5" class="st3" width="3" height="3"/>
	<rect x="378.5" y="594.5" class="st2" width="3" height="3"/>
	<rect x="1051.2" y="689.5" class="st3" width="3" height="3"/>
	<rect x="1051.2" y="689.5" class="st2" width="3" height="3"/>
</g>
</svg>
