<svg xmlns="http://www.w3.org/2000/svg" width="1920" height="1080" fill="none" viewBox="0 0 1920 1080">
  <path fill="url(#a)" d="M0 0h1920v1080H0z"/>
  <path stroke="#0B1D34" stroke-dasharray="20 20" stroke-width="3" d="m1710.91 1177.86-.03-80.2c0-7.96-3.16-15.58-8.79-21.2l-335.68-335.692a30.01 30.01 0 0 0-21.34-8.786l-213.76.892a29.968 29.968 0 0 0-21.38 9.089l-248.319 255.46c-11.432 11.757-11.299 30.527.299 42.127l732.86 732.86c11.72 11.71 30.71 11.71 42.43 0l359.21-359.21c11.71-11.72 11.71-30.71 0-42.43l-101.36-101.36a29.99 29.99 0 0 0-21.2-8.78l-80.21-.04c-7.95 0-15.57-3.16-21.2-8.78l-52.74-52.75a29.957 29.957 0 0 1-8.79-21.2Z"/>
  <path stroke="#0B1D34" stroke-width="3" d="m977.827 819.815-80.203-.304a30.001 30.001 0 0 0-21.238 8.698L539.301 1162.49a30.009 30.009 0 0 0-8.875 21.3v213.76c0 8.06 3.243 15.78 9 21.43l254.421 249.37c11.714 11.49 30.478 11.43 42.124-.12l735.909-729.797c11.77-11.666 11.85-30.661.18-42.426l-357.71-360.705c-11.66-11.765-30.66-11.844-42.42-.177L1070.15 636.06a30.004 30.004 0 0 0-8.88 21.164l-.36 80.203a30.005 30.005 0 0 1-8.88 21.165l-52.965 52.525a29.997 29.997 0 0 1-21.238 8.698Z"/>
  <path stroke="#102742" stroke-dasharray="20 20" stroke-width="3" d="m1286.58 816.211-80.2.031a30.015 30.015 0 0 0-21.21 8.787L731.954 1278.25a30.013 30.013 0 0 0-8.786 21.34l.299 71.66a29.987 29.987 0 0 0 8.931 21.23L1180 1834.06c11.74 11.58 30.62 11.52 42.28-.14l660.14-660.13a30.036 30.036 0 0 0 8.78-21.22v-145.14c0-7.96-3.16-15.591-8.78-21.217L1552.5 656.297l-78.08-78.084c-11.72-11.716-30.71-11.715-42.43 0l-30.18 30.177a29.997 29.997 0 0 0-8.78 21.202l-.03 80.204a30.05 30.05 0 0 1-8.79 21.202l-76.43 76.427a29.995 29.995 0 0 1-21.2 8.786Z"/>
  <path stroke="#102742" stroke-width="3" d="m1852.49 1104.08-.03-80.2c0-7.96-3.16-15.58-8.78-21.21l-284.73-284.719a29.969 29.969 0 0 0-21.33-8.786l-71.67.299a30.008 30.008 0 0 0-21.23 8.93L1003.14 1166c-11.579 11.74-11.515 30.62.14 42.28l732.71 732.71c11.72 11.71 30.71 11.71 42.43 0l480.57-480.58c11.72-11.71 11.72-30.71 0-42.42l-101.36-101.36a29.999 29.999 0 0 0-21.2-8.79l-80.2-.03a29.98 29.98 0 0 1-21.21-8.79l-173.74-173.74a30.04 30.04 0 0 1-8.79-21.2Z"/>
  <path stroke="#1C314B" stroke-width="3" d="m1799.06 565.161-80.2-.304a30.018 30.018 0 0 0-21.24 8.698l-337.08 334.284a30.006 30.006 0 0 0-8.88 21.301v213.76c0 8.06 3.25 15.78 9 21.42l254.42 249.38c11.72 11.48 30.48 11.43 42.13-.12l735.91-729.801c11.77-11.666 11.84-30.661.18-42.426l-357.71-360.705c-11.67-11.765-30.66-11.844-42.43-.177l-101.78 100.935a29.995 29.995 0 0 0-8.87 21.165l-.37 80.202a29.995 29.995 0 0 1-8.87 21.165l-52.97 52.525a29.979 29.979 0 0 1-21.24 8.698Z"/>
  <path stroke="#1C314B" stroke-dasharray="20 20" stroke-width="3" d="m1801.56 666.903-80.2-.304a30.01 30.01 0 0 0-21.24 8.698l-239.93 237.937a29.994 29.994 0 0 0-8.87 21.301v71.625c0 8.01 3.2 15.68 8.89 21.32l324.85 321.66c11.7 11.58 30.55 11.58 42.23-.02l735.81-729.687c11.76-11.666 11.84-30.661.18-42.426l-357.71-360.705c-11.67-11.765-30.66-11.844-42.43-.177l-101.78 100.934a29.956 29.956 0 0 0-8.87 21.165l-.37 80.203a30.039 30.039 0 0 1-8.87 21.165L1822.8 658.204a29.98 29.98 0 0 1-21.24 8.699Z"/>
  <path stroke="#1C314B" stroke-width="3" d="m2089.56 666.903-80.2-.304a30.014 30.014 0 0 0-21.24 8.698l-239.93 237.937a29.994 29.994 0 0 0-8.87 21.301v71.625c0 8.01 3.2 15.68 8.89 21.32l324.85 321.66c11.7 11.58 30.54 11.58 42.23-.02l735.81-729.686c11.76-11.667 11.84-30.662.18-42.426l-357.71-360.706c-11.67-11.765-30.66-11.844-42.43-.177L2349.36 317.06a29.953 29.953 0 0 0-8.87 21.165l-.37 80.203a30.036 30.036 0 0 1-8.87 21.164L2110.8 658.205a30 30 0 0 1-21.24 8.698Z"/>
  <path stroke="#0B1D34" stroke-width="3" d="m35.285 166.53 56.735 56.691A30 30 0 0 0 113.225 232h474.733a30 30 0 0 0 21.301-8.875L759.776 71.346a30.001 30.001 0 0 0 8.696-21.55l-5.053-356.221C763.187-322.826 749.825-336 733.422-336H-303c-16.568 0-30 13.431-30 30v508c0 16.569 13.431 30 30 30h143.343a30 30 0 0 0 21.205-8.779l56.734-56.691a30 30 0 0 1 21.205-8.778H14.08a30 30 0 0 1 21.205 8.778Z"/>
  <path stroke="#0B1D34" stroke-dasharray="12 12" stroke-width="3" d="m481.547 266.093 27.168 27.134a30 30 0 0 0 21.2 8.773h363.043a30 30 0 0 0 21.301-8.875l150.521-151.779a29.995 29.995 0 0 0 8.69-21.55l-5.05-356.221c-.23-16.401-13.59-29.575-30-29.575H2c-16.568 0-30 13.431-30 30v508c0 16.569 13.431 30 30 30h143.347c7.95 0 15.575-3.156 21.2-8.773l27.169-27.134a29.998 29.998 0 0 1 21.199-8.774h245.433a30 30 0 0 1 21.199 8.774Z"/>
  <defs>
    <radialGradient id="a" cx="0" cy="0" r="1" gradientTransform="matrix(3704.50117 2098.99676 -2462.40194 4345.8718 0 0)" gradientUnits="userSpaceOnUse">
      <stop stop-color="#0C1520"/>
      <stop offset="1" stop-color="#234064"/>
    </radialGradient>
  </defs>
</svg>
